<svg data-v-423bf9ae="" xmlns="http://www.w3.org/2000/svg" viewBox="0 0 356.4278496770595 163" class="iconAbove"><!----><!----><!----><g data-v-423bf9ae="" id="c7970c1a-1b22-42a0-82bf-99473a664e6d" fill="black" transform="matrix(6.054490506946714,0,0,6.054490506946714,-3.329967599357616,92.82845339838147)"><path d="M5.11 10.57C2.86 10.57 1.60 8.93 1.60 6.85C1.60 4.76 2.86 3.12 5.11 3.12C6.64 3.12 7.64 3.85 8.12 4.98L9.23 4.98C8.64 3.29 7.13 2.10 5.03 2.10C2.24 2.10 0.55 4.21 0.55 6.85C0.55 9.48 2.24 11.59 5.03 11.59C7.13 11.59 8.64 10.40 9.23 8.71L8.12 8.71C7.64 9.84 6.64 10.57 5.11 10.57ZM10.57 1.68L10.57 11.48L11.62 11.48L11.62 7.45C11.62 6.19 12.57 5.32 13.73 5.32C14.88 5.32 15.69 6.16 15.69 7.43L15.69 11.48L16.74 11.48L16.74 7.41C16.74 5.42 15.39 4.37 13.94 4.37C12.81 4.37 12.12 4.90 11.62 5.57L11.62 1.68ZM21.45 4.37C19.40 4.37 18.06 5.98 18.06 7.98C18.06 9.98 19.40 11.59 21.45 11.59C22.61 11.59 23.44 11.12 23.95 10.36L23.95 11.48L25.00 11.48L25.00 4.48L23.95 4.48L23.95 5.61C23.44 4.86 22.61 4.37 21.45 4.37ZM21.59 10.64C20.03 10.64 19.11 9.42 19.11 7.98C19.11 6.54 20.03 5.32 21.59 5.32C23.14 5.32 24.01 6.54 24.01 7.98C24.01 9.42 23.14 10.64 21.59 10.64ZM28.63 11.48L28.63 5.40L30.24 5.40L30.24 4.48L28.63 4.48L28.63 1.97L27.58 1.97L27.58 4.48L26.15 4.48L26.15 5.40L27.58 5.40L27.58 11.48ZM38.23 3.22L38.23 2.21L31.54 2.21L31.54 11.48L32.59 11.48L32.59 7.46L37.62 7.46L37.62 6.44L32.59 6.44L32.59 3.22ZM42.31 4.37C40.17 4.37 38.84 5.98 38.84 7.98C38.84 9.98 40.17 11.59 42.31 11.59C44.45 11.59 45.78 9.98 45.78 7.98C45.78 5.98 44.45 4.37 42.31 4.37ZM42.31 10.64C40.75 10.64 39.89 9.42 39.89 7.98C39.89 6.54 40.75 5.32 42.31 5.32C43.86 5.32 44.73 6.54 44.73 7.98C44.73 9.42 43.86 10.64 42.31 10.64ZM48.22 1.68L47.17 1.68L47.17 11.48L48.22 11.48ZM50.04 11.48L51.09 11.48L51.09 4.48L50.04 4.48ZM49.99 1.93L49.99 3.30L51.13 3.30L51.13 1.93ZM55.94 4.37C53.80 4.37 52.47 5.98 52.47 7.98C52.47 9.98 53.80 11.59 55.94 11.59C58.09 11.59 59.42 9.98 59.42 7.98C59.42 5.98 58.09 4.37 55.94 4.37ZM55.94 10.64C54.39 10.64 53.52 9.42 53.52 7.98C53.52 6.54 54.39 5.32 55.94 5.32C57.50 5.32 58.37 6.54 58.37 7.98C58.37 9.42 57.50 10.64 55.94 10.64Z"></path></g><!----><g data-v-423bf9ae="" id="7ac7b2ec-7752-43c2-a639-61fbf0a32894" transform="matrix(2.8125,0,0,2.8125,134,0)" stroke="none" fill="black"><path d="M29.625 1l-3.099 3.172H4.054v23.657h22.472L29.625 31H1V1h28.625M32 0H0v32h32l-5.054-5.172H5.054V5.172h21.893L32 0z"></path><path d="M21.038 10.962v10.076H10.962V10.962h10.076m1-1H9.962v12.076h12.076V9.962z"></path></g><!----></svg>